<?xml version="1.0" encoding="UTF-8"?>
<svg id="a" data-name="レイヤー 1" xmlns="http://www.w3.org/2000/svg" viewBox="0 0 617.28 759.91">
  <g>
    <path d="M543.47,665.64c-.74,7.2-1.03,13.81-2.14,20.27-7.16,41.77-41.7,72.46-82.87,73.84-1.48.05-2.97.03-4.45.03-121.67.04-243.34.08-365.01.12-30.05.01-54.1-12.45-72.05-37.1-11.33-15.57-16.57-33.42-16.74-52.8-.16-17.56-.05-35.12-.05-52.68C.11,473.79.08,330.26,0,186.73c-.02-26.8,8.7-49.79,27.66-68.4,10.59-10.4,23.05-17.43,37.14-21.42,2.84-.8,5.72-1.48,9.11-2.35.22-2.27.6-4.47.63-6.67.49-40.86,30.06-79.79,74.67-86.68,4.86-.75,9.85-.88,14.79-.89C285.17.24,406.34.52,527.52,0c43.04-.18,81.28,30.86,88.31,75.7.9,5.74,1.08,11.65,1.09,17.49.11,160.08-.1,320.15.36,480.22.13,43.84-27.1,77.8-61.25,88.75-3.99,1.28-8.07,2.24-12.56,3.48ZM123.88,333.38c.02,71.76.05,143.52.07,215.28,0,9.67-.16,19.34.07,29.01.41,17.35,12.1,32.51,28.45,36.62,4.5,1.13,9.29,1.43,13.94,1.43,119.68.04,239.36-.02,359.04-.06,1.73,0,3.46.03,5.19-.03,17.27-.65,31.92-12.61,35.92-29.92,1.18-5.12,1.37-10.58,1.37-15.88.02-157.77-.05-315.54-.1-473.31,0-2.54.02-5.09-.1-7.63-.89-18.53-13.05-33.35-30.74-37.12-3.83-.82-7.84-1.02-11.77-1.03-119.68-.01-239.36.04-359.04.08-1.98,0-3.96-.02-5.93.11-17.34,1.13-31.63,13.3-35.46,30.63-.92,4.15-.94,8.58-.94,12.88-.03,79.65.01,159.3.04,238.94ZM74.58,146.85c-12.36,5.75-19.81,13.55-23.08,24.86-1.52,5.25-1.88,11.01-1.88,16.54-.04,159.06.03,318.11.08,477.17,0,1.78-.02,3.56.02,5.34.4,17.87,11.79,32.88,28.69,37.18,4.25,1.08,8.81,1.22,13.22,1.22,119.94.02,239.88-.03,359.81-.07,1.73,0,3.46.03,5.19-.02,16.8-.52,31.56-12.56,35.6-29.34.97-4.04,1.06-8.3,1.68-13.53-4.34,0-7.48,0-10.63,0-106.83.03-213.66.04-320.49.13-24.79.02-45.96-8.93-63.24-27.07-17.11-17.96-24.89-39.78-24.88-64.95.08-138.7-.03-277.4-.08-416.09,0-3.22,0-6.44,0-11.38Z" stroke-width="0"/>
    <path d="M334.72,152c-52.41.02-104.81.04-157.22.05-1.73,0-3.46.02-5.19,0-12.64-.18-19-7.66-17.52-20.61.83-7.23,5.87-12.74,12.85-13.72,2.68-.38,5.43-.3,8.14-.3,106.05-.05,212.1-.08,318.15-.11,1.73,0,3.46-.04,5.19.04,10.43.47,16.39,6.92,16.28,17.58-.11,10.58-6.18,16.96-16.79,16.98-54.63.1-109.26.07-163.9.1Z" stroke-width="0"/>
    <path d="M312.65,221.75c-45.21.01-90.42.03-135.62.04-1.98,0-3.96.07-5.93-.02-10.44-.52-16.38-6.88-16.4-17.51-.02-10.64,5.96-17.09,16.32-17.55,1.97-.09,3.95-.03,5.93-.03,90.42-.03,180.83-.06,271.24-.09,1.73,0,3.46-.04,5.19.01,11.49.32,17.75,7.26,17.16,19.01-.44,8.76-5.7,14.77-14.12,15.91-2.43.33-4.93.18-7.4.18-45.45.02-90.91.04-136.36.05Z" stroke-width="0"/>
    <path d="M301.41,256.32c41.3-.01,82.59-.03,123.89-.04,1.98,0,3.96-.05,5.93.02,10.46.36,16.49,6.75,16.45,17.38-.04,10.57-6.12,16.89-16.62,17.23-2.22.07-4.45.02-6.68.02-82.34.03-164.69.05-247.03.08-1.98,0-3.96-.08-5.93,0-12.58.56-20.3-11.02-15.33-25.24,1.88-5.38,6.17-8.51,11.81-9.18,2.45-.29,4.94-.23,7.41-.24,42.04-.03,84.07-.04,126.11-.05Z" stroke-width="0"/>
  </g>
  <path d="M323.52,584.82c-3.36,0-6.29-.19-9.18.05-3.67.31-5.79-1.3-7.72-4.48-5.5-9.05-11.35-17.87-17.09-26.77-.75-1.17-1.65-2.24-3.73-3.05,0,5.47,0,10.94,0,16.41,0,5.56,0,11.12,0,17.26-4.49,0-8.56,0-13.26,0,0-19.53-.01-39.16-.02-59.27,1.92-.16,3.83-.23,5.73-.5,5.44-.76,8.93,1.07,11.89,6.34,5.51,9.8,12.07,18.97,19.43,28.03,0-11,0-22-.01-33.68,4.9,0,9.16,0,13.93,0,0,19.48.01,38.92.02,59.65Z" stroke-width="0"/>
  <path d="M373.12,567.1c4.06-.56,8.15-1.12,12.49-1.72,1.02,1.73,1.76,3.3,2.78,4.65,3.1,4.09,9.03,5.63,13.27,3.02,1.69-1.04,3.3-3.18,3.75-5.12.63-2.68-1.07-4.94-3.67-5.86-3.03-1.07-6.15-1.83-9.24-2.72-2.85-.83-5.81-1.36-8.51-2.54-6.56-2.89-9.96-8.36-9.98-15.57-.02-6.89,3.15-12.3,9.34-15.23,8.51-4.04,17.24-4.08,25.85-.25,5.17,2.3,7.54,5.7,9.6,12.63-6.83,3.77-10.89,3.4-16.2-1.03-1.45-1.21-3.43-2.07-5.27-2.37-4.34-.7-8.32,1.82-8.75,5.12-.37,2.85,1.7,5.09,6.21,6.34,4.28,1.19,8.72,1.86,12.92,3.29,8.86,3.01,13.36,9.63,12.8,18.19-.58,8.83-5.68,14.88-14.39,17.1-6.63,1.69-13.25,1.48-19.77-.41-8.41-2.44-12.38-7.66-13.22-17.52Z" stroke-width="0"/>
  <path d="M343.1,595.16c-4.14,0-7.51,0-12.14,0,8.2-24.04,16.77-47.12,25.03-70.31,4.07,0,7.46,0,12.11,0-8.14,23.85-16.6,46.75-24.99,70.31Z" stroke-width="0"/>
</svg>