<?xml version="1.0" encoding="UTF-8"?>
<svg id="a" data-name="レイヤー 1" xmlns="http://www.w3.org/2000/svg" viewBox="0 0 1359.54 317.07">
  <g>
    <g>
      <path d="M226.76,277.73c-.31,3-.43,5.76-.89,8.46-2.99,17.43-17.4,30.23-34.58,30.81-.62.02-1.24.01-1.86.01-50.77.02-101.53.03-152.3.05-12.54,0-22.57-5.19-30.06-15.48-4.73-6.5-6.91-13.94-6.98-22.03-.07-7.33-.02-14.65-.02-21.98C.05,197.69.03,137.8,0,77.91c0-11.18,3.63-20.77,11.54-28.54,4.42-4.34,9.62-7.27,15.5-8.94,1.19-.34,2.39-.62,3.8-.98.09-.95.25-1.86.26-2.78.21-17.05,12.54-33.29,31.15-36.17,2.03-.31,4.11-.37,6.17-.37C118.98.1,169.54.22,220.1,0c17.96-.08,33.92,12.88,36.85,31.58.38,2.4.45,4.86.45,7.3.05,66.79-.04,133.58.15,200.37.05,18.29-11.31,32.46-25.56,37.03-1.66.53-3.37.94-5.24,1.45ZM51.69,139.1c0,29.94.02,59.88.03,89.82,0,4.03-.07,8.07.03,12.1.17,7.24,5.05,13.57,11.87,15.28,1.88.47,3.87.6,5.82.6,49.94.01,99.87,0,149.81-.02.72,0,1.45.01,2.17-.01,7.21-.27,13.32-5.26,14.99-12.49.49-2.14.57-4.41.57-6.62,0-65.83-.02-131.66-.04-197.48,0-1.06,0-2.12-.04-3.18-.37-7.73-5.45-13.91-12.83-15.49-1.6-.34-3.27-.43-4.91-.43-49.94,0-99.87.02-149.81.03-.83,0-1.65,0-2.48.04-7.24.47-13.2,5.55-14.79,12.78-.38,1.73-.39,3.58-.39,5.37-.01,33.23,0,66.47.02,99.7ZM31.12,61.27c-5.16,2.4-8.27,5.66-9.63,10.37-.63,2.19-.79,4.59-.79,6.9-.02,66.37.01,132.73.03,199.1,0,.74,0,1.49,0,2.23.17,7.46,4.92,13.72,11.97,15.51,1.77.45,3.67.51,5.52.51,50.04,0,100.09-.01,150.13-.03.72,0,1.45.01,2.17-.01,7.01-.22,13.17-5.24,14.85-12.24.4-1.68.44-3.46.7-5.64-1.81,0-3.12,0-4.44,0-44.57.01-89.15.02-133.72.05-10.34,0-19.18-3.73-26.39-11.29-7.14-7.49-10.39-16.6-10.38-27.1.03-57.87-.01-115.74-.03-173.61v-4.75Z" stroke-width="0"/>
      <path d="M139.66,63.42c-21.87,0-43.73.02-65.6.02-.72,0-1.44,0-2.17,0-5.27-.07-7.93-3.2-7.31-8.6.34-3.02,2.45-5.32,5.36-5.73,1.12-.16,2.26-.13,3.4-.13,44.25-.02,88.5-.03,132.75-.05.72,0,1.44-.02,2.17.02,4.35.2,6.84,2.89,6.79,7.34-.04,4.41-2.58,7.08-7,7.09-22.79.04-45.59.03-68.38.04Z" stroke-width="0"/>
      <path d="M130.45,92.52c-18.86,0-37.73.01-56.59.02-.82,0-1.65.03-2.47-.01-4.36-.22-6.83-2.87-6.84-7.31,0-4.44,2.49-7.13,6.81-7.32.82-.04,1.65-.01,2.47-.01,37.73-.01,75.45-.02,113.18-.04.72,0,1.44-.01,2.16,0,4.79.13,7.41,3.03,7.16,7.93-.18,3.65-2.38,6.16-5.89,6.64-1.02.14-2.06.07-3.09.07-18.97,0-37.93.01-56.9.02Z" stroke-width="0"/>
      <path d="M125.76,106.95c17.23,0,34.46-.01,51.69-.02.83,0,1.65-.02,2.48,0,4.36.15,6.88,2.81,6.86,7.25-.02,4.41-2.56,7.05-6.94,7.19-.93.03-1.86,0-2.79,0-34.36.01-68.71.02-103.07.03-.83,0-1.65-.03-2.48,0-5.25.23-8.47-4.6-6.4-10.53.78-2.24,2.57-3.55,4.93-3.83,1.02-.12,2.06-.1,3.09-.1,17.54-.01,35.08-.02,52.62-.02Z" stroke-width="0"/>
    </g>
    <path d="M134.99,244.01c-1.4,0-2.62-.08-3.83.02-1.53.13-2.42-.54-3.22-1.87-2.29-3.78-4.74-7.46-7.13-11.17-.31-.49-.69-.93-1.55-1.27,0,2.28,0,4.57,0,6.85,0,2.32,0,4.64,0,7.2-1.88,0-3.57,0-5.53,0,0-8.15,0-16.34,0-24.73.8-.07,1.6-.1,2.39-.21,2.27-.32,3.72.45,4.96,2.65,2.3,4.09,5.04,7.92,8.11,11.69,0-4.59,0-9.18,0-14.05,2.05,0,3.82,0,5.81,0,0,8.13,0,16.24,0,24.89Z" stroke-width="0"/>
    <path d="M155.68,236.62c1.69-.23,3.4-.47,5.21-.72.43.72.73,1.38,1.16,1.94,1.29,1.71,3.77,2.35,5.54,1.26.7-.43,1.38-1.33,1.56-2.14.26-1.12-.45-2.06-1.53-2.44-1.26-.45-2.57-.76-3.85-1.14-1.19-.34-2.43-.57-3.55-1.06-2.74-1.21-4.16-3.49-4.17-6.5,0-2.87,1.32-5.13,3.9-6.36,3.55-1.68,7.2-1.7,10.78-.1,2.16.96,3.15,2.38,4,5.27-2.85,1.57-4.54,1.42-6.76-.43-.6-.5-1.43-.86-2.2-.99-1.81-.29-3.47.76-3.65,2.14-.15,1.19.71,2.12,2.59,2.65,1.79.5,3.64.78,5.39,1.37,3.7,1.25,5.57,4.02,5.34,7.59-.24,3.69-2.37,6.21-6,7.14-2.77.71-5.53.62-8.25-.17-3.51-1.02-5.16-3.2-5.52-7.31Z" stroke-width="0"/>
    <path d="M143.16,248.33h-5.07c3.42-10.03,7-19.66,10.44-29.33,1.7,0,3.11,0,5.05,0-3.4,9.95-6.93,19.5-10.43,29.34Z" stroke-width="0"/>
  </g>
  <g>
    <path d="M495.84,83.8v147.38h-49.13l-31.37-87.86c-3.59-9.83-6.24-20.03-8.5-30.23h-1.7c2.46,24.19,3.59,58.2,3.59,78.79v39.3h-30.61V83.8h49.13l31.37,87.86c3.59,9.83,6.42,20.03,8.69,30.23h1.7c-2.46-24.38-3.78-50.26-3.78-74.82v-43.27h30.61Z" stroke-width="0"/>
    <path d="M514.17,247.24h-10.77l61.03-175.72h10.77l-61.03,175.72Z" stroke-width="0"/>
    <path d="M608.08,182.43c2.46,16.63,10.01,25.7,25.7,25.7,8.88,0,15.49-4.53,15.49-13.98,0-10.58-6.42-14.74-29.67-22.86-26.83-9.45-40.62-22.49-40.62-44.97,0-27.78,19.65-44.4,49.5-44.4s48.75,15.12,52.91,43.27l-33.63,6.99c-1.32-17.76-8.31-27.02-20.78-27.02-9.64,0-14.93,6.05-14.93,15.12,0,10.01,6.99,15.31,28.15,22.11,31.37,10.01,44.59,21.73,44.59,45.91,0,27.4-19.84,44.97-53.09,44.97s-54.42-15.68-58.38-46.48l34.77-4.35Z" stroke-width="0"/>
    <path d="M862.03,231.18l-22.11-53.85h-14.17v53.85h-34.01V83.8h49.69c30.42,0,51.96,13.79,51.96,43.27,0,20.97-9.07,33.26-23.62,39.49l31.74,64.62h-39.49ZM825.75,152.2h12.09c13.42,0,21.54-5.86,21.54-21.54s-8.12-22.3-21.54-22.3h-12.09v43.84Z" stroke-width="0"/>
    <path d="M1006.39,186.78h-63.87c1.89,17.95,9.07,24.56,18.71,24.56,7.18,0,11.9-4.91,14.17-13.98l28.15,8.5c-9.07,21.73-24.37,27.21-42.7,27.21-32.5,0-50.83-19.27-50.83-54.04,0-38.55,20.59-57.44,48.18-57.44,34.39,0,48.18,21.92,48.18,48.75v16.44ZM976.54,165.24c-.19-14.74-7.37-22.11-16.63-22.11-7.94,0-15.12,4.91-17.19,22.11h33.82Z" stroke-width="0"/>
    <path d="M1043.43,194.34c6.05,12.85,13.6,18.33,22.49,18.33,7.37,0,11.15-3.59,11.15-8.5,0-7.94-7.94-10.96-26.83-16.82-19.65-6.05-28.72-14.36-28.72-31.18,0-20.78,16.25-34.96,41.57-34.96,22.48,0,37.98,10.01,42.7,28.34l-25.89,7.94c-2.65-10.2-9.64-16.06-18.14-16.06-6.61,0-10.2,3.21-10.2,8.88s4.35,8.88,17.19,12.47c25.32,6.99,38.36,15.68,38.36,35.52,0,21.73-17.01,35.14-44.59,35.14-21.54,0-37.98-8.88-45.73-29.29l26.64-9.83Z" stroke-width="0"/>
    <path d="M1218.78,123.48v107.7h-30.04v-14.55h-.38c-6.24,11.15-17.38,16.44-30.99,16.44-19.27,0-34.2-11.53-34.2-36.66v-72.93h32.12v66.13c0,14.55,4.54,19.65,14.93,19.65,9.26,0,16.44-5.67,16.44-19.65v-66.13h32.12Z" stroke-width="0"/>
    <path d="M1273.57,201.52c0,5.86,1.89,8.88,7.56,8.88.76,0,2.08,0,3.21-.38v21.16c-3.59,1.13-9.26,1.89-14.36,1.89-16.25,0-28.53-5.86-28.53-26.26v-126.79h32.12v121.49Z" stroke-width="0"/>
    <path d="M1332.9,194.9c0,10.39,4.91,13.98,15.68,13.98,3.4,0,6.99-.76,9.07-1.51v22.67c-5.67,1.89-13.98,3.02-21.16,3.02-20.41,0-34.77-10.58-34.77-33.07v-53.85h-15.49v-22.67h15.49v-14.36l31.18-17.95v32.31h23.24v22.67h-23.24v48.75Z" stroke-width="0"/>
  </g>
</svg>